<?xml version="1.0" standalone="no"?>
<!DOCTYPE svg PUBLIC "-//W3C//DTD SVG 20010904//EN"
 "http://www.w3.org/TR/2001/REC-SVG-20010904/DTD/svg10.dtd">
<svg version="1.0" xmlns="http://www.w3.org/2000/svg"
 width="795.000000pt" height="795.000000pt" viewBox="0 0 795.000000 795.000000"
 preserveAspectRatio="xMidYMid meet">
<metadata>
Created by potrace 1.11, written by Peter Selinger 2001-2013
</metadata>
<g transform="translate(0.000000,795.000000) scale(0.100000,-0.100000)"
fill="#000000" stroke="none">
<path d="M3665 7924 c-568 -56 -1007 -182 -1485 -425 -606 -308 -1114 -760
-1495 -1329 -357 -535 -563 -1095 -647 -1760 -18 -142 -18 -728 0 -870 84
-665 290 -1225 647 -1760 381 -569 889 -1021 1495 -1329 429 -218 828 -341
1320 -408 194 -26 756 -26 950 0 492 67 891 190 1320 408 606 308 1114 760
1495 1329 357 535 563 1095 647 1760 18 142 18 728 0 870 -84 665 -290 1225
-647 1760 -381 569 -889 1021 -1495 1329 -424 216 -820 339 -1310 407 -110 15
-690 28 -795 18z m515 -1475 c572 -16 1149 -46 1430 -75 80 -7 148 -14 153
-14 4 0 7 -212 7 -472 l0 -472 -38 37 -38 38 -990 -3 c-979 -3 -990 -3 -1051
-24 -34 -12 -73 -30 -87 -41 -23 -19 -24 -22 -10 -47 13 -27 12 -30 -21 -69
-19 -22 -40 -57 -47 -76 -8 -25 -13 -157 -15 -413 l-4 -377 33 -5 c18 -2 382
-16 808 -31 426 -14 855 -29 953 -32 l177 -6 0 -466 0 -465 -37 36 -38 37
-690 -24 c-1111 -39 -1218 -44 -1229 -55 -7 -7 -5 -19 7 -39 16 -27 17 -103
17 -1020 l0 -991 -36 40 -36 40 -489 0 -489 0 0 2008 c0 2157 -1 2099 50 2267
12 39 45 115 73 170 44 86 66 115 157 208 59 59 109 104 113 100 4 -3 7 -2 7
4 0 6 24 26 54 44 48 30 52 36 43 56 -8 18 -13 20 -30 12 -12 -7 -17 -7 -13
-1 11 18 153 72 259 97 192 46 250 48 1047 24z"/>
</g>
</svg>
